HIERARCHY
ROOT Hips
{
  OFFSET 5.84602e-005 68.8428 3.50346
  CHANNELS 6 Xposition Yposition Zposition Zrotation Xrotation Yrotation
  JOINT Spine
  {
    OFFSET 0 8.597 -4.6522
    CHANNELS 3 Zrotation Xrotation Yrotation
    JOINT Spine1
    {
      OFFSET 0 7.8454 0.4098
      CHANNELS 3 Zrotation Xrotation Yrotation
      JOINT Spine2
      {
        OFFSET 0 9.7078 -2.1609
        CHANNELS 3 Zrotation Xrotation Yrotation
        JOINT Neck
        {
          OFFSET 0 21.8761 -0.4549
          CHANNELS 3 Zrotation Xrotation Yrotation
          JOINT Head
          {
            OFFSET 0 12.3537 3.3602
            CHANNELS 3 Zrotation Xrotation Yrotation
            End Site
            {
              OFFSET 0.0001 18.9506 0.5657
            }
          }
        }
        JOINT LeftShoulder
        {
          OFFSET 2.2086 21.1115 7.2329
          CHANNELS 3 Zrotation Xrotation Yrotation
          JOINT LeftArm
          {
            OFFSET 13.1193 3.0282 -4.8998
            CHANNELS 3 Zrotation Xrotation Yrotation
            JOINT LeftForeArm
            {
              OFFSET 27.4081 -0.0973053 -0.2375
              CHANNELS 3 Zrotation Xrotation Yrotation
              JOINT LeftHand
              {
                OFFSET 22.8641 0.0662994 -0.1369
                CHANNELS 3 Zrotation Xrotation Yrotation
                JOINT LeftHandIndex1
                {
                  OFFSET 8.8614 0.775009 2.4612
                  CHANNELS 3 Zrotation Xrotation Yrotation
                  JOINT LeftHandIndex2
                  {
                    OFFSET 3.3146 -0.808304 0.5841
                    CHANNELS 3 Zrotation Xrotation Yrotation
                    JOINT LeftHandIndex3
                    {
                      OFFSET 2.2628 -0.552002 0.3989
                      CHANNELS 3 Zrotation Xrotation Yrotation
                      End Site
                      {
                        OFFSET 1.6102 -0.4807 0.2612
                      }
                    }
                  }
                }
                JOINT LeftHandMiddle1
                {
                  OFFSET 8.9937 0.895004 0.2143
                  CHANNELS 3 Zrotation Xrotation Yrotation
                  JOINT LeftHandMiddle2
                  {
                    OFFSET 4.0984 0.0113983 -0.0242
                    CHANNELS 3 Zrotation Xrotation Yrotation
                    JOINT LeftHandMiddle3
                    {
                      OFFSET 2.2716 0.00689697 -0.0138001
                      CHANNELS 3 Zrotation Xrotation Yrotation
                      End Site
                      {
                        OFFSET 2.0404 -0.1441 0.0027
                      }
                    }
                  }
                }
                JOINT LeftHandRing1
                {
                  OFFSET 8.5234 0.597198 -2.0164
                  CHANNELS 3 Zrotation Xrotation Yrotation
                  JOINT LeftHandRing2
                  {
                    OFFSET 3.7188 -0.188293 -0.2328
                    CHANNELS 3 Zrotation Xrotation Yrotation
                    JOINT LeftHandRing3
                    {
                      OFFSET 2.1191 -0.106598 -0.1332
                      CHANNELS 3 Zrotation Xrotation Yrotation
                      End Site
                      {
                        OFFSET 1.8737 -0.2304 -0.0886
                      }
                    }
                  }
                }
                JOINT LeftHandPinky1
                {
                  OFFSET 7.9094 -0.601089 -3.4825
                  CHANNELS 3 Zrotation Xrotation Yrotation
                  JOINT LeftHandPinky2
                  {
                    OFFSET 2.2874 -0.477005 -0.6314
                    CHANNELS 3 Zrotation Xrotation Yrotation
                    JOINT LeftHandPinky3
                    {
                      OFFSET 1.6774 -0.349396 -0.4633
                      CHANNELS 3 Zrotation Xrotation Yrotation
                      End Site
                      {
                        OFFSET 1.4888 -0.4091 -0.3416
                      }
                    }
                  }
                }
                JOINT LeftHandThumb1
                {
                  OFFSET 1.833 -1.3875 1.3896
                  CHANNELS 3 Zrotation Xrotation Yrotation
                  JOINT LeftHandThumb2
                  {
                    OFFSET 3.4129 -1.121 2.5732
                    CHANNELS 3 Zrotation Xrotation Yrotation
                    JOINT LeftHandThumb3
                    {
                      OFFSET 2.2474 -0.804199 1.6192
                      CHANNELS 3 Zrotation Xrotation Yrotation
                      End Site
                      {
                        OFFSET 1.6527 -0.5689 1.1317
                      }
                    }
                  }
                }
              }
            }
          }
        }
        JOINT RightShoulder
        {
          OFFSET -2.2086 21.1115 7.2329
          CHANNELS 3 Zrotation Xrotation Yrotation
          JOINT RightArm
          {
            OFFSET -13.1216 3.0287 -4.9007
            CHANNELS 3 Zrotation Xrotation Yrotation
            JOINT RightForeArm
            {
              OFFSET -27.4081 -0.0973053 -0.2375
              CHANNELS 3 Zrotation Xrotation Yrotation
              JOINT RightHand
              {
                OFFSET -22.8641 0.0664063 -0.1369
                CHANNELS 3 Zrotation Xrotation Yrotation
                JOINT RightHandIndex1
                {
                  OFFSET -8.8614 0.774994 2.4612
                  CHANNELS 3 Zrotation Xrotation Yrotation
                  JOINT RightHandIndex2
                  {
                    OFFSET -3.3146 -0.808304 0.5841
                    CHANNELS 3 Zrotation Xrotation Yrotation
                    JOINT RightHandIndex3
                    {
                      OFFSET -2.2628 -0.552002 0.3989
                      CHANNELS 3 Zrotation Xrotation Yrotation
                      End Site
                      {
                        OFFSET -1.6102 -0.4807 0.2612
                      }
                    }
                  }
                }
                JOINT RightHandMiddle1
                {
                  OFFSET -8.9937 0.894989 0.2143
                  CHANNELS 3 Zrotation Xrotation Yrotation
                  JOINT RightHandMiddle2
                  {
                    OFFSET -4.0984 0.0113983 -0.0242
                    CHANNELS 3 Zrotation Xrotation Yrotation
                    JOINT RightHandMiddle3
                    {
                      OFFSET -2.2716 0.00691223 -0.0138001
                      CHANNELS 3 Zrotation Xrotation Yrotation
                      End Site
                      {
                        OFFSET -2.0404 -0.1441 0.0027
                      }
                    }
                  }
                }
                JOINT RightHandRing1
                {
                  OFFSET -8.5234 0.597198 -2.0164
                  CHANNELS 3 Zrotation Xrotation Yrotation
                  JOINT RightHandRing2
                  {
                    OFFSET -3.7188 -0.188309 -0.2328
                    CHANNELS 3 Zrotation Xrotation Yrotation
                    JOINT RightHandRing3
                    {
                      OFFSET -2.1191 -0.106598 -0.1332
                      CHANNELS 3 Zrotation Xrotation Yrotation
                      End Site
                      {
                        OFFSET -1.8737 -0.2304 -0.0886
                      }
                    }
                  }
                }
                JOINT RightHandPinky1
                {
                  OFFSET -7.9094 -0.601105 -3.4825
                  CHANNELS 3 Zrotation Xrotation Yrotation
                  JOINT RightHandPinky2
                  {
                    OFFSET -2.2874 -0.477005 -0.6314
                    CHANNELS 3 Zrotation Xrotation Yrotation
                    JOINT RightHandPinky3
                    {
                      OFFSET -1.6774 -0.349396 -0.4633
                      CHANNELS 3 Zrotation Xrotation Yrotation
                      End Site
                      {
                        OFFSET -1.4888 -0.4091 -0.3416
                      }
                    }
                  }
                }
                JOINT RightHandThumb1
                {
                  OFFSET -1.833 -1.38751 1.3896
                  CHANNELS 3 Zrotation Xrotation Yrotation
                  JOINT RightHandThumb2
                  {
                    OFFSET -3.41299 -1.12099 2.5732
                    CHANNELS 3 Zrotation Xrotation Yrotation
                    JOINT RightHandThumb3
                    {
                      OFFSET -2.24741 -0.804108 1.6192
                      CHANNELS 3 Zrotation Xrotation Yrotation
                      End Site
                      {
                        OFFSET -1.6527 -0.5689 1.1317
                      }
                    }
                  }
                }
              }
            }
          }
        }
      }
    }
  }
  JOINT RightUpLeg
  {
    OFFSET -9.1966 3.8861 -0.7581
    CHANNELS 3 Zrotation Xrotation Yrotation
    JOINT RightLeg
    {
      OFFSET -0.7359 -41.0265 0
      CHANNELS 3 Zrotation Xrotation Yrotation
      JOINT RightFoot
      {
        OFFSET 0 -40.2855 0
        CHANNELS 3 Zrotation Xrotation Yrotation
        JOINT RightToeBase
        {
          OFFSET 0 -5.6122 11.7359
          CHANNELS 3 Zrotation Xrotation Yrotation
          End Site
          {
            OFFSET 0 0 7.8731
          }
        }
      }
    }
  }
  JOINT LeftUpLeg
  {
    OFFSET 9.1965 3.8864 -0.7581
    CHANNELS 3 Zrotation Xrotation Yrotation
    JOINT LeftLeg
    {
      OFFSET 0.7359 -41.0268 0
      CHANNELS 3 Zrotation Xrotation Yrotation
      JOINT LeftFoot
      {
        OFFSET 0 -40.2855 0
        CHANNELS 3 Zrotation Xrotation Yrotation
        JOINT LeftToeBase
        {
          OFFSET 0 -5.6122 11.7359
          CHANNELS 3 Zrotation Xrotation Yrotation
          End Site
          {
            OFFSET 0 0 7.8731
          }
        }
      }
    }
  }
}
MOTION
Frames:	4
Frame Time:	0.0333333
5.84602e-005 68.8428 3.50346 0 0 -0 0 0 -0 0 0 -0 0 0 -0 0 0 -0 0 0 -0 0 0 -0 0 0 -0 0 0 -0 0 0 -0 0 0 -0 0 0 -0 0 0 -0 0 0 -0 -0.0146107 -8.87603e-005 -2.63497e-007 2.99804e-018 -2.42657e-020 -1.42182e-022 0 0 -0 -0.0187562 -0.001176 5.858e-005 5.06224e-018 3.88251e-019 1.21329e-020 0 0 -0 -0.012269 -0.00324817 0.000675346 -1.74678e-018 3.88251e-019 -0 0 0 -0 0 0 -0 0 0 -0 0 0 -0 0 0 -0 0 0 -0 0 0 -0 0 0 -0 0 0 -0 0 0 -0 0 0 -0 0.0149955 -9.10982e-005 2.64101e-007 -9.69331e-018 1.21329e-020 -4.7394e-023 0 0 -0 0.0189956 -0.00119102 -5.96516e-005 -5.41541e-019 0 2.42657e-020 0 0 -0 0.0122698 -0.00324857 -0.000673756 -2.00796e-019 0 -1.94126e-019 0 0 -0 0 0 -0 0 0 -0 3.39842 1.33031 -0.0637918 -5.65207e-008 0.834868 -0.000436188 -3.39935 -2.16518 -0.0642563 -8.89002e-024 -1.18485e-023 -1.48106e-024 -3.39844 1.35642 0.0640283 -3.18788e-007 0.782166 -0.000588827 3.39931 -2.13858 0.0634662 1.1399e-023 0 -0 
-1.75036 11.0802 8.00537 -1.40334e-014 2.29846e-019 -90.0019 -0.334935 3.09359 -0.204062 -0.660263 6.18831 -0.390825 -0.660265 6.1883 -0.390824 0.0718391 0.0855671 -0.222129 0.160014 0.231937 -0.442705 -23.5398 2.27152 -6.303 -6.84127 3.93069 -14.9793 -40.4913 -3.19983 -20.7597 33.9935 -0.0199211 0.000596719 -3.18055e-015 -3.18055e-015 1.59028e-015 -3.18055e-015 -3.18055e-015 4.77083e-015 -6.36111e-015 -3.18055e-015 -1.59028e-015 -3.18055e-015 -3.18055e-015 1.59028e-015 -0.0145999 -8.83128e-005 1.48035e-006 1.27222e-014 -3.18055e-015 9.54166e-015 -3.18055e-015 -3.18055e-015 1.59028e-015 -0.0187328 -0.00117913 6.15212e-005 2.64834e-031 3.18055e-015 -4.77083e-015 -3.18055e-015 -3.18055e-015 1.59028e-015 -0.0122806 -0.00324967 0.000673736 -3.18055e-015 -6.36111e-015 3.18055e-015 -3.18055e-015 -3.18055e-015 1.59028e-015 -3.18055e-015 -3.18055e-015 4.77083e-015 -6.36111e-015 -3.18055e-015 -1.59028e-015 12.6749 -0.16204 3.05666 51.8339 26.5702 -1.23593 -23.8907 -26.8599 24.0561 -17.9556 10.4795 -16.9194 -3.18055e-015 1.51076e-014 1.59028e-015 -3.18055e-015 1.51076e-014 1.59028e-015 -3.18055e-015 1.43125e-014 1.59028e-015 -3.18055e-015 1.51076e-014 1.59028e-015 0.0149925 -9.39189e-005 -7.5241e-006 0 2.38542e-015 -0 -3.18055e-015 1.51076e-014 1.59028e-015 0.0189975 -0.00119059 -5.57734e-005 -6.36111e-015 -1.59028e-015 3.18055e-015 -3.18055e-015 1.51076e-014 1.59028e-015 0.012271 -0.00324858 -0.000675699 2.20289e-008 -1.1414e-006 -3.0472e-006 -3.18055e-015 1.51076e-014 1.59028e-015 -3.18055e-015 1.51076e-014 1.59028e-015 -3.18055e-015 1.43125e-014 1.59028e-015 -136.23 -54.7295 -148.235 -169.073 60.8475 167.258 -3.73774 -3.62647 -2.58255 1.03368e-014 1.98785e-015 9.54166e-015 136.262 -54.7392 148.254 169.144 60.8483 -167.333 3.75297 -3.63052 2.61244 1.24013e-007 5.89706e-007 3.58978e-008 
-1.69702 11.433 8.00532 0.443924 -1.09899e-005 -90.0028 -0.332512 3.48483 -0.20784 -0.654151 6.97085 -0.396555 -0.654151 6.97086 -0.396519 0.133482 0.18229 -0.445636 0.256275 0.498336 -0.89598 -23.0537 1.69742 -7.04745 -6.84128 3.93069 -14.9792 -40.4913 -3.19982 -20.7597 34.6444 -1.45796 -0.533776 3.81847e-006 -6.40317e-007 -1.86975e-006 1.61313e-006 7.20572e-008 4.15292e-007 2.71865e-006 -1.60743e-006 -9.58256e-007 3.81847e-006 -6.40317e-007 -1.86975e-006 -0.0146482 -8.7467e-005 -1.63142e-006 2.71854e-006 -1.6073e-006 -9.58464e-007 3.81847e-006 -6.40317e-007 -1.86975e-006 -0.0187189 -0.00116842 5.62403e-005 1.61608e-006 -2.5747e-006 -4.71904e-008 3.81847e-006 -6.40317e-007 -1.86975e-006 -0.012323 -0.00326178 0.000684035 2.71852e-006 -1.60736e-006 -9.58501e-007 3.81847e-006 -6.40317e-007 -1.86975e-006 1.61313e-006 7.20572e-008 4.15292e-007 2.71865e-006 -1.60743e-006 -9.58256e-007 13.0674 -0.671945 4.17133 51.0223 26.5324 -1.24135 -23.9277 -26.8743 23.6599 -18.8162 8.83866 -16.7371 -0 -7.95139e-016 -0 6.36111e-015 -3.18055e-015 -0 -3.18055e-015 -2.38542e-015 1.59028e-015 -0 -7.95139e-016 -0 0.0149926 -9.29801e-005 -6.6185e-006 7.81379e-011 1.11167e-006 3.05304e-006 -0 -7.95139e-016 -0 0.0190155 -0.00119376 -6.91162e-005 3.18055e-015 7.15625e-015 -3.18055e-015 -0 -7.95139e-016 -0 0.0122204 -0.00323272 -0.000676846 6.36111e-015 3.18055e-015 -0 -0 -7.95139e-016 -0 6.36111e-015 -3.18055e-015 -0 -3.18055e-015 -2.38542e-015 1.59028e-015 -136.247 -54.7259 -148.212 -168.994 61.2419 167.218 -3.58736 -3.79985 -2.61435 -1.36747e-007 -8.16052e-007 -1.14194e-005 136.279 -54.7355 148.231 169.067 61.2432 -167.293 3.60348 -3.80338 2.64239 -7.95139e-016 -3.57812e-015 3.18055e-015 
-1.64348 11.7862 8.00528 0.88797 -2.90064e-005 -90.0037 -0.329925 3.87917 -0.211644 -0.647683 7.75946 -0.402247 -0.647683 7.75946 -0.40224 0.195597 0.278893 -0.669304 0.354788 0.764345 -1.35038 -22.5745 1.11628 -7.7878 -6.84127 3.93069 -14.9793 -40.4914 -3.19983 -20.7597 35.2846 -2.90688 -1.05409 -3.18055e-015 -6.36111e-015 -1.59028e-015 3.18055e-015 -3.18055e-015 -1.59028e-015 -9.54166e-015 3.18055e-015 -1.59028e-015 -3.18055e-015 -6.36111e-015 -1.59028e-015 -0.0146328 -8.99283e-005 1.61617e-007 -3.18055e-015 6.36111e-015 3.18055e-015 -3.18055e-015 -6.36111e-015 -1.59028e-015 -0.0187491 -0.0011778 5.96077e-005 -3.18055e-015 -3.18055e-015 -0 -3.18055e-015 -6.36111e-015 -1.59028e-015 -0.0122494 -0.00324318 0.000674969 3.18055e-015 -6.36111e-015 1.11319e-014 -3.18055e-015 -6.36111e-015 -1.59028e-015 3.18055e-015 -3.18055e-015 -1.59028e-015 -9.54166e-015 3.18055e-015 -1.59028e-015 13.4707 -1.17513 5.29192 50.2104 26.4946 -1.24734 -23.9647 -26.8884 23.2637 -19.6716 7.18836 -16.5798 -3.11205e-008 4.41112e-007 9.99225e-007 8.82781e-032 -3.18055e-015 1.59028e-015 -6.36111e-015 -5.56597e-015 1.59028e-015 -3.11205e-008 4.41112e-007 9.99225e-007 0.0149943 -9.26845e-005 8.89487e-007 3.18055e-015 2.38542e-015 -0 -3.11205e-008 4.41112e-007 9.99225e-007 0.019 -0.0011912 -6.3458e-005 -1.10348e-031 3.97569e-015 1.59028e-015 -3.11205e-008 4.41112e-007 9.99225e-007 0.0122232 -0.00323554 -0.000666599 6.36111e-015 -2.38542e-015 1.59028e-015 -3.11205e-008 4.41112e-007 9.99225e-007 8.82781e-032 -3.18055e-015 1.59028e-015 -6.36111e-015 -5.56597e-015 1.59028e-015 -136.264 -54.7222 -148.189 -168.914 61.6361 167.175 -3.43706 -3.97345 -2.64587 -1.59028e-015 -1.59028e-015 -0 136.296 -54.7319 148.208 168.988 61.6382 -167.252 3.45403 -3.97647 2.67207 -1.59028e-015 4.37326e-015 -3.18055e-015 
